<svg width="18" height="17" viewBox="0 0 18 17" fill="none" xmlns="http://www.w3.org/2000/svg">
<path opacity="0.75" d="M15.71 10.2941C15.5217 10.1058 15.2663 10 15 10C14.7337 10 14.4783 10.1058 14.29 10.2941C14.1017 10.4824 13.9959 10.7378 13.9959 11.0041C13.9959 11.2704 14.1017 11.5258 14.29 11.7141L14.58 12.0041H13C11.9391 12.0041 10.9217 11.5827 10.1716 10.8325C9.42143 10.0824 9 9.06497 9 8.00411C9 6.94324 9.42143 5.92583 10.1716 5.17568C10.9217 4.42553 11.9391 4.00411 13 4.00411H14.59L14.29 4.29411C14.1963 4.38707 14.1219 4.49767 14.0711 4.61953C14.0203 4.74139 13.9942 4.8721 13.9942 5.00411C13.9942 5.13612 14.0203 5.26682 14.0711 5.38868C14.1219 5.51054 14.1963 5.62114 14.29 5.71411C14.3834 5.80679 14.4943 5.88011 14.6161 5.92988C14.7379 5.97964 14.8684 6.00487 15 6.00411C15.1316 6.00487 15.2621 5.97964 15.3839 5.92988C15.5057 5.88011 15.6166 5.80679 15.71 5.71411L17.71 3.71411C17.8027 3.62067 17.876 3.50985 17.9258 3.38801C17.9755 3.26618 18.0008 3.13571 18 3.00411C18.0008 2.8725 17.9755 2.74204 17.9258 2.6202C17.876 2.49836 17.8027 2.38755 17.71 2.29411L15.71 0.294107C15.6168 0.200868 15.5061 0.126908 15.3842 0.0764475C15.2624 0.0259872 15.1319 1.52588e-05 15 1.52588e-05C14.7337 1.52588e-05 14.4783 0.105803 14.29 0.294107C14.1017 0.482411 13.9959 0.737805 13.9959 1.00411C13.9959 1.27041 14.1017 1.5258 14.29 1.71411L14.58 2.00411H13C12.0093 2.00483 11.0342 2.25087 10.1617 2.72026C9.28921 3.18965 8.54655 3.86778 8 4.69411C7.45345 3.86778 6.71079 3.18965 5.83832 2.72026C4.96585 2.25087 3.99072 2.00483 3 2.00411H1C0.734784 2.00411 0.48043 2.10946 0.292893 2.297C0.105357 2.48454 0 2.73889 0 3.00411C0 3.26932 0.105357 3.52368 0.292893 3.71121C0.48043 3.89875 0.734784 4.00411 1 4.00411H3C4.06087 4.00411 5.07828 4.42553 5.82843 5.17568C6.57857 5.92583 7 6.94324 7 8.00411C7 9.06497 6.57857 10.0824 5.82843 10.8325C5.07828 11.5827 4.06087 12.0041 3 12.0041H1C0.734784 12.0041 0.48043 12.1095 0.292893 12.297C0.105357 12.4845 0 12.7389 0 13.0041C0 13.2693 0.105357 13.5237 0.292893 13.7112C0.48043 13.8988 0.734784 14.0041 1 14.0041H3C3.99072 14.0034 4.96585 13.7573 5.83832 13.288C6.71079 12.8186 7.45345 12.1404 8 11.3141C8.54655 12.1404 9.28921 12.8186 10.1617 13.288C11.0342 13.7573 12.0093 14.0034 13 14.0041H14.59L14.29 14.2941C14.1963 14.3871 14.1219 14.4977 14.0711 14.6195C14.0203 14.7414 13.9942 14.8721 13.9942 15.0041C13.9942 15.1361 14.0203 15.2668 14.0711 15.3887C14.1219 15.5105 14.1963 15.6211 14.29 15.7141C14.3834 15.8068 14.4943 15.8801 14.6161 15.9299C14.7379 15.9796 14.8684 16.0049 15 16.0041C15.1316 16.0049 15.2621 15.9796 15.3839 15.9299C15.5057 15.8801 15.6166 15.8068 15.71 15.7141L17.71 13.7141C17.8027 13.6207 17.876 13.5099 17.9258 13.388C17.9755 13.2662 18.0008 13.1357 18 13.0041C18.0008 12.8725 17.9755 12.742 17.9258 12.6202C17.876 12.4984 17.8027 12.3875 17.71 12.2941L15.71 10.2941Z" fill="white"/>
</svg>
