<svg width="29" height="30" viewBox="0 0 29 30" fill="none" xmlns="http://www.w3.org/2000/svg">
<path d="M13.657 1.17895V0.732877C13.657 0.328085 13.9842 0 14.3878 0C14.7914 0 15.1185 0.328085 15.1185 0.732877V1.17895C15.1185 1.58375 14.7914 1.91183 14.3878 1.91183C13.9842 1.91183 13.657 1.58367 13.657 1.17895ZM6.59024 3.47042C6.72559 3.70567 6.97121 3.83718 7.22388 3.83718C7.34778 3.83718 7.47339 3.80551 7.58836 3.73898C7.93798 3.5367 8.0579 3.08851 7.85622 2.73795L7.63399 2.35164C7.43222 2.001 6.98525 1.88081 6.63588 2.083C6.28626 2.28527 6.16641 2.73347 6.36802 3.08403L6.59024 3.47042ZM21.1869 3.73898C21.3019 3.80559 21.4275 3.83726 21.5515 3.83726C21.804 3.83726 22.0497 3.70575 22.1851 3.47066L22.4074 3.08435C22.6092 2.73379 22.4894 2.2856 22.1399 2.08324C21.7905 1.88097 21.3436 2.00108 21.1417 2.35156L20.9193 2.73787C20.7176 3.08834 20.8373 3.53654 21.1869 3.73898ZM26.7977 9.09737C26.9217 9.09737 27.0473 9.06569 27.1625 8.999L27.5477 8.77596C27.8971 8.57352 28.0168 8.12525 27.8149 7.77477C27.6132 7.42429 27.1663 7.30418 26.8168 7.5067L26.4316 7.72974C26.0821 7.93217 25.9624 8.38037 26.1642 8.73093C26.2995 8.96594 26.5451 9.09737 26.7977 9.09737ZM28.6972 22.0949C27.7483 23.981 25.0967 25.2483 22.0989 25.2483C20.0439 25.2483 18.1189 24.6538 16.8102 23.636C16.0605 24.1513 15.269 24.4831 14.4849 24.5844C14.4492 24.5891 14.4133 24.5908 14.3788 24.5905C14.3495 24.5902 14.3201 24.5883 14.2907 24.5844C13.5065 24.483 12.715 24.1512 11.9654 23.636C10.6567 24.6539 8.73181 25.2483 6.67663 25.2483C3.67888 25.2483 1.02725 23.981 0.0783418 22.0949C-0.0260734 21.8874 -0.0261545 21.6424 0.0783418 21.4347C0.778476 20.0427 2.37954 18.9872 4.40556 18.5297C3.35427 17.0322 2.97038 15.2627 3.4465 13.749C3.5048 13.5638 3.63406 13.4093 3.80579 13.3196C5.00648 12.6922 6.52927 12.6468 8.01162 13.1678C8.23166 12.4367 8.57795 11.8005 9.04717 11.3045C9.20769 11.1349 9.4395 11.0524 9.67066 11.0822C10.054 11.1318 10.4389 11.2365 10.82 11.3906C11.5932 9.75183 12.7328 8.52971 14.0828 7.9084C14.2762 7.81931 14.4988 7.81931 14.6923 7.9084C16.0419 8.52939 17.1811 9.75069 17.9545 11.3884C18.3356 11.2356 18.7209 11.132 19.1049 11.0822C19.3363 11.0524 19.5679 11.1349 19.7284 11.3045C20.1977 11.8005 20.5438 12.4366 20.7639 13.1676C22.2464 12.6467 23.769 12.6923 24.9696 13.3195C25.1413 13.4092 25.2706 13.5637 25.3289 13.7489C25.8052 15.2627 25.4213 17.0321 24.3699 18.5296C26.396 18.9871 27.9971 20.0426 28.6972 21.4345C28.8016 21.6424 28.8016 21.8874 28.6972 22.0949ZM19.8493 20.016C20.6428 19.8183 21.4311 19.4111 22.1255 18.8268C23.5438 17.6334 24.2866 15.8957 24.0115 14.4913C23.1531 14.157 22.0825 14.2089 21.0275 14.6334C21.1288 16.0018 20.8828 17.5496 20.275 19.073C20.1458 19.3969 20.0033 19.7118 19.8493 20.016ZM12.1014 12.1047C12.9433 12.7057 13.7285 13.5376 14.3862 14.5328C15.0473 13.527 15.8317 12.6964 16.6715 12.0988C16.1087 10.8792 15.3031 9.92535 14.3877 9.39825C13.4708 9.92625 12.6642 10.8823 12.1014 12.1047ZM6.64984 18.8267C7.34413 19.4111 8.13268 19.8185 8.92635 20.0161C8.77225 19.7117 8.62991 19.397 8.50057 19.0729C7.89284 17.5496 7.64682 16.0017 7.74807 14.6334C6.69304 14.2087 5.62242 14.1568 4.76387 14.4912C4.48879 15.8956 5.23163 17.6333 6.64984 18.8267ZM10.8109 22.6641C10.4962 22.3466 10.1957 21.9961 9.91391 21.6174C8.46582 21.5925 6.95513 20.9973 5.71035 19.9496C5.65798 19.9055 5.6065 19.8611 5.55567 19.8159C3.77583 20.037 2.28413 20.7728 1.58229 21.7647C2.43556 22.9683 4.4529 23.7826 6.67647 23.7826C8.25512 23.7826 9.765 23.3651 10.8109 22.6641ZM14.1038 17.1384C13.3755 15.3131 12.1579 13.8077 10.8781 13.048C10.8424 13.031 10.8086 13.0114 10.7768 12.9896C10.474 12.8195 10.1685 12.6917 9.86544 12.6116C9.5625 13.046 9.35968 13.6018 9.25876 14.2349C9.25616 14.2735 9.25048 14.3121 9.24163 14.3504C9.07299 15.5732 9.27419 17.0668 9.85732 18.5285C10.4459 20.0036 11.3539 21.2697 12.3562 22.1023C12.3796 22.1192 12.4022 22.1377 12.4239 22.1577C12.967 22.5965 13.536 22.9075 14.0956 23.0554C14.9938 21.7676 15.0117 19.4143 14.1038 17.1384ZM18.9181 18.5284C19.501 17.0672 19.7022 15.574 19.534 14.3515C19.5248 14.3123 19.519 14.2727 19.5164 14.2332C19.4155 13.6007 19.2126 13.0455 18.9099 12.6113C18.6114 12.69 18.31 12.8148 18.0107 12.981C17.9712 13.0095 17.9281 13.0345 17.8821 13.0551C16.8881 13.6476 15.9287 14.6909 15.2065 16.0047C15.296 16.1974 15.3808 16.3939 15.4606 16.594C16.2892 18.6709 16.4455 20.7935 15.9657 22.4446C16.0961 22.3558 16.2256 22.2594 16.3536 22.1559C16.3739 22.1373 16.395 22.12 16.4168 22.1041C17.42 21.2715 18.3291 20.0046 18.9181 18.5284ZM27.1931 21.7647C26.4912 20.7728 24.9995 20.0371 23.2195 19.8159C23.1688 19.861 23.1172 19.9056 23.0649 19.9496C21.8201 20.9971 20.3095 21.5924 18.8615 21.6173C18.5798 21.9961 18.2792 22.3466 17.9645 22.6641C19.0105 23.3649 20.5205 23.7825 22.0989 23.7825C24.3224 23.7826 26.3398 22.9683 27.1931 21.7647ZM21.4717 27.1852C21.1674 26.9193 20.7058 26.9513 20.4407 27.2564C19.9799 27.787 17.7973 28.5342 14.3878 28.5342C10.9782 28.5342 8.79555 27.787 8.33477 27.2564C8.06968 26.9513 7.60809 26.9193 7.30378 27.1852C6.99946 27.4511 6.96763 27.914 7.23273 28.2192C8.3744 29.5336 11.8006 30 14.3879 30C16.975 30 20.4012 29.5336 21.5429 28.2192C21.8078 27.9139 21.776 27.4511 21.4717 27.1852ZM4.78149 11.6782C5.16968 11.7879 5.57354 11.5611 5.68299 11.1716C6.77537 7.28309 10.3549 4.56729 14.3878 4.56729C18.4207 4.56729 22.0002 7.28309 23.0926 11.1716C23.1833 11.4948 23.4765 11.7059 23.7955 11.7059C23.8611 11.7059 23.9279 11.697 23.9941 11.6782C24.3826 11.5685 24.6087 11.1637 24.4992 10.7741C23.2302 6.25657 19.0722 3.10154 14.3878 3.10154C9.70329 3.10154 5.54528 6.25665 4.2763 10.7741C4.16685 11.1637 4.39298 11.5685 4.78149 11.6782ZM14.3878 27.5369C15.0156 27.5369 17.1222 27.4697 17.872 26.6059C18.137 26.3006 18.1051 25.8377 17.8007 25.5719C17.4979 25.3075 17.0394 25.3378 16.7739 25.6387C16.6072 25.7906 15.7422 26.0711 14.3878 26.0711C13.033 26.0711 12.1679 25.7905 12.0014 25.6386C11.7357 25.3378 11.2774 25.3075 10.9746 25.572C10.6702 25.8378 10.6384 26.3008 10.9035 26.606C11.6535 27.4698 13.7601 27.5369 14.3878 27.5369ZM1.2278 8.7758L1.61274 8.99892C1.72787 9.06561 1.85356 9.09737 1.97771 9.09737C2.23014 9.09737 2.47567 8.96602 2.6111 8.73101C2.81303 8.38053 2.69343 7.93226 2.34397 7.72982L1.95903 7.5067C1.60982 7.30434 1.1626 7.42405 0.960756 7.7746C0.758827 8.125 0.878425 8.57328 1.2278 8.7758Z" fill="white"/>
</svg>
