<svg version="1.2" baseProfile="tiny-ps" xmlns="http://www.w3.org/2000/svg" viewBox="0 0 44 52" width="44" height="52">
	<title>Logo(2)-svg</title>
	<style>
		tspan { white-space:pre }
		.shp0 { fill: #ffffff } 
	</style>
	<g id="Layer">
		<path id="Layer" fill-rule="evenodd" class="shp0" d="M20.7 3.78L20.7 3.05C20.71 2.38 21.2 1.85 21.8 1.85C22.4 1.85 22.89 2.39 22.89 3.05L22.89 3.78C22.89 4.45 22.4 4.99 21.79 4.98C21.19 4.98 20.7 4.44 20.7 3.78ZM9.8 6.88C9.5 6.31 9.68 5.57 10.21 5.24C10.73 4.91 11.4 5.11 11.7 5.68L12.03 6.32C12.33 6.9 12.15 7.63 11.62 7.96C11.45 8.07 11.26 8.12 11.08 8.12C10.7 8.12 10.34 7.9 10.13 7.52L9.8 6.88ZM31.55 6.36L31.88 5.73C32.19 5.15 32.85 4.96 33.38 5.29C33.9 5.62 34.08 6.36 33.77 6.93L33.44 7.57C33.24 7.95 32.87 8.17 32.49 8.17C32.31 8.17 32.12 8.11 31.95 8C31.42 7.67 31.25 6.93 31.55 6.36ZM39.37 16.21C39.07 15.63 39.25 14.9 39.77 14.57L40.35 14.2C40.87 13.87 41.54 14.07 41.84 14.64C42.14 15.22 41.96 15.95 41.44 16.29L40.86 16.65C40.69 16.76 40.5 16.81 40.31 16.81C39.94 16.81 39.57 16.59 39.37 16.21ZM43.11 38.14C41.68 41.23 37.72 43.3 33.24 43.29C30.17 43.29 27.29 42.3 25.34 40.63C24.22 41.47 23.03 42.01 21.86 42.18C21.81 42.19 21.75 42.19 21.7 42.19C21.66 42.19 21.61 42.18 21.57 42.18C20.4 42.01 19.22 41.46 18.1 40.61C16.14 42.28 13.26 43.25 10.19 43.24C5.71 43.23 1.75 41.15 0.34 38.05C0.18 37.71 0.19 37.31 0.34 36.97C1.39 34.68 3.79 32.96 6.82 32.21C5.25 29.75 4.68 26.85 5.4 24.37C5.49 24.06 5.68 23.81 5.94 23.66C7.74 22.64 10.01 22.57 12.23 23.43C12.56 22.23 13.08 21.19 13.78 20.38C14.02 20.1 14.37 19.96 14.71 20.01C15.28 20.1 15.86 20.27 16.43 20.52C17.59 17.84 19.3 15.84 21.32 14.82C21.61 14.68 21.94 14.68 22.23 14.82C24.24 15.85 25.94 17.85 27.09 20.54C27.66 20.29 28.24 20.12 28.81 20.04C29.16 19.99 29.5 20.13 29.74 20.41C30.44 21.22 30.96 22.27 31.28 23.47C33.5 22.62 35.78 22.7 37.57 23.73C37.82 23.88 38.02 24.13 38.1 24.44C38.81 26.92 38.23 29.82 36.65 32.28C39.68 33.03 42.07 34.77 43.11 37.06C43.27 37.4 43.27 37.8 43.11 38.14ZM29.89 34.7C31.08 34.38 32.26 33.71 33.3 32.76C35.42 30.8 36.54 27.96 36.13 25.65C34.85 25.1 33.25 25.18 31.67 25.87C31.82 28.12 31.45 30.66 30.53 33.16C30.34 33.69 30.12 34.2 29.89 34.7ZM18.34 21.7C19.6 22.69 20.77 24.05 21.75 25.69C22.74 24.04 23.91 22.68 25.17 21.7C24.33 19.7 23.13 18.13 21.77 17.27C20.39 18.13 19.19 19.69 18.34 21.7ZM10.17 32.71C11.21 33.67 12.38 34.34 13.57 34.67C13.34 34.17 13.13 33.65 12.94 33.12C12.03 30.62 11.67 28.08 11.83 25.83C10.25 25.13 8.65 25.04 7.37 25.59C6.95 27.89 8.06 30.75 10.17 32.71ZM16.38 39.02C15.91 38.5 15.46 37.92 15.04 37.3C12.88 37.25 10.62 36.27 8.76 34.55C8.69 34.47 8.61 34.4 8.53 34.33C5.87 34.68 3.64 35.89 2.59 37.51C3.86 39.49 6.87 40.83 10.19 40.84C12.55 40.84 14.81 40.16 16.38 39.02ZM21.32 29.96C20.23 26.97 18.42 24.49 16.51 23.24C16.46 23.21 16.41 23.18 16.36 23.15C15.91 22.87 15.45 22.66 15 22.52C14.54 23.24 14.24 24.15 14.09 25.18C14.08 25.25 14.07 25.31 14.06 25.37C13.8 27.38 14.1 29.83 14.97 32.23C15.84 34.65 17.19 36.73 18.69 38.1C18.72 38.13 18.76 38.16 18.79 38.19C19.6 38.91 20.45 39.42 21.28 39.67C22.63 37.56 22.67 33.7 21.32 29.96ZM28.51 32.26C29.38 29.86 29.69 27.41 29.44 25.41C29.43 25.34 29.42 25.28 29.41 25.21C29.27 24.18 28.97 23.26 28.51 22.55C28.07 22.68 27.62 22.88 27.17 23.15C27.11 23.2 27.05 23.24 26.98 23.28C25.49 24.24 24.05 25.95 22.97 28.11C23.1 28.42 23.23 28.75 23.35 29.07C24.58 32.48 24.8 35.97 24.08 38.67C24.28 38.53 24.47 38.37 24.66 38.2C24.69 38.17 24.72 38.14 24.76 38.12C26.26 36.75 27.62 34.68 28.51 32.26ZM40.86 37.59C39.82 35.96 37.59 34.75 34.93 34.38C34.85 34.46 34.78 34.53 34.7 34.6C32.83 36.32 30.58 37.29 28.41 37.32C27.99 37.95 27.54 38.52 27.07 39.04C28.63 40.19 30.88 40.88 33.24 40.89C36.57 40.89 39.58 39.56 40.86 37.59ZM32.4 48.16C30.69 50.32 25.56 51.07 21.7 51.06C17.83 51.05 12.71 50.28 11.01 48.12C10.62 47.62 10.66 46.86 11.12 46.42C11.58 45.99 12.27 46.04 12.66 46.54C13.35 47.41 16.61 48.65 21.7 48.66C26.8 48.67 30.06 47.45 30.75 46.58C31.15 46.08 31.84 46.03 32.29 46.47C32.75 46.9 32.79 47.66 32.4 48.16ZM6.65 19.49C8.56 12.08 14.79 6.92 21.79 6.94C28.79 6.95 34.99 12.14 36.87 19.55C37.04 20.19 36.7 20.86 36.12 21.04C36.02 21.07 35.92 21.08 35.82 21.08C35.34 21.08 34.9 20.73 34.77 20.2C33.15 13.82 27.81 9.35 21.78 9.34C15.76 9.33 10.4 13.77 8.75 20.15C8.59 20.79 7.98 21.16 7.4 20.98C6.82 20.79 6.49 20.13 6.65 19.49ZM16.5 45.48C16.11 44.98 16.16 44.22 16.61 43.79C17.07 43.35 17.75 43.41 18.15 43.9C18.39 44.15 19.69 44.61 21.71 44.62C23.74 44.62 25.03 44.16 25.28 43.92C25.68 43.42 26.36 43.37 26.81 43.81C27.27 44.25 27.31 45.01 26.92 45.5C25.79 46.92 22.64 47.02 21.71 47.02C20.77 47.02 17.62 46.9 16.5 45.48ZM1.71 14.56C2.01 13.99 2.68 13.79 3.2 14.12L3.77 14.49C4.3 14.82 4.47 15.56 4.17 16.13C3.97 16.52 3.6 16.73 3.22 16.73C3.04 16.73 2.85 16.68 2.68 16.57L2.1 16.2C1.58 15.87 1.4 15.13 1.71 14.56Z" />
	</g>
</svg>