<svg version="1.2" baseProfile="tiny-ps" xmlns="http://www.w3.org/2000/svg" viewBox="0 0 226 226" width="226" height="226">
	<title>Logo(1)-svg</title>
	<style>
		tspan { white-space:pre }
		.shp0 { fill: #ffffff } 
	</style>
	<g id="Layer">
		<path id="Layer" fill-rule="evenodd" class="shp0" d="M109.87 13.37L109.87 10.2C109.87 7.33 112.17 5 115 5C117.83 5 120.13 7.33 120.13 10.2L120.13 13.37C120.13 16.25 117.83 18.57 115 18.57C112.17 18.57 109.87 16.24 109.87 13.37ZM58.7 26.9C57.29 24.41 58.13 21.22 60.58 19.79C63.03 18.35 66.17 19.21 67.59 21.7L69.15 24.44C70.56 26.93 69.72 30.11 67.27 31.55C66.46 32.02 65.58 32.24 64.71 32.24C62.94 32.24 61.21 31.31 60.26 29.64L58.7 26.9ZM160.85 24.44L162.41 21.7C163.83 19.21 166.97 18.35 169.42 19.79C171.87 21.23 172.71 24.41 171.3 26.9L169.74 29.64C168.79 31.31 167.06 32.25 165.29 32.25C164.42 32.25 163.54 32.02 162.73 31.55C160.28 30.11 159.43 26.93 160.85 24.44ZM197.67 66.99C196.25 64.5 197.09 61.32 199.55 59.88L202.25 58.3C204.7 56.86 207.84 57.71 209.26 60.2C210.67 62.69 209.83 65.87 207.38 67.31L204.68 68.89C203.87 69.37 202.99 69.59 202.12 69.59C200.34 69.59 198.62 68.66 197.67 66.99ZM215.45 161.87C208.79 175.26 190.18 184.26 169.13 184.26C154.71 184.26 141.19 180.04 132 172.82C126.74 176.47 121.19 178.83 115.68 179.55C115.43 179.58 115.18 179.6 114.94 179.59C114.73 179.59 114.53 179.58 114.32 179.55C108.81 178.83 103.26 176.47 98 172.82C88.81 180.04 75.3 184.26 60.87 184.26C39.83 184.26 21.21 175.26 14.55 161.87C13.82 160.4 13.82 158.66 14.55 157.19C19.46 147.3 30.7 139.81 44.93 136.56C37.55 125.93 34.85 113.37 38.19 102.62C38.6 101.3 39.51 100.21 40.72 99.57C49.14 95.12 59.84 94.79 70.24 98.49C71.78 93.3 74.22 88.78 77.51 85.26C78.64 84.06 80.26 83.47 81.89 83.68C84.58 84.04 87.28 84.78 89.96 85.87C95.38 74.24 103.38 65.56 112.86 61.15C114.22 60.52 115.78 60.52 117.14 61.15C126.61 65.56 134.61 74.23 140.04 85.86C142.71 84.77 145.42 84.04 148.11 83.68C149.74 83.47 151.36 84.06 152.49 85.26C155.78 88.78 158.22 93.3 159.76 98.49C170.17 94.79 180.85 95.12 189.28 99.57C190.49 100.21 191.4 101.3 191.81 102.62C195.15 113.37 192.45 125.93 185.07 136.56C199.3 139.81 210.54 147.3 215.45 157.19C216.18 158.66 216.18 160.4 215.45 161.87ZM153.34 147.11C158.91 145.71 164.44 142.82 169.32 138.67C179.27 130.2 184.49 117.86 182.56 107.89C176.53 105.51 169.02 105.88 161.61 108.9C162.32 118.61 160.59 129.6 156.33 140.42C155.42 142.72 154.42 144.95 153.34 147.11ZM98.95 90.94C104.86 95.21 110.37 101.12 114.99 108.18C119.63 101.04 125.14 95.14 131.03 90.9C127.08 82.24 121.43 75.47 115 71.73C108.56 75.48 102.9 82.26 98.95 90.94ZM60.68 138.67C65.56 142.82 71.09 145.71 76.66 147.11C75.58 144.95 74.58 142.72 73.67 140.42C69.41 129.6 67.68 118.61 68.39 108.9C60.98 105.88 53.47 105.51 47.44 107.89C45.51 117.86 50.72 130.2 60.68 138.67ZM89.89 165.92C87.68 163.66 85.57 161.17 83.59 158.48C73.43 158.31 62.82 154.08 54.09 146.64C53.72 146.33 53.36 146.01 53 145.69C40.51 147.26 30.03 152.49 25.11 159.53C31.1 168.07 45.26 173.86 60.87 173.86C71.95 173.86 82.55 170.89 89.89 165.92ZM113.01 126.68C107.89 113.72 99.35 103.03 90.36 97.64C90.11 97.52 89.88 97.38 89.65 97.23C87.53 96.02 85.38 95.11 83.25 94.54C81.13 97.63 79.7 101.57 79 106.07C78.98 106.34 78.94 106.62 78.88 106.89C77.69 115.57 79.1 126.17 83.2 136.55C87.33 147.03 93.7 156.01 100.74 161.93C100.9 162.05 101.06 162.18 101.21 162.32C105.03 165.44 109.02 167.64 112.95 168.69C119.25 159.55 119.38 142.84 113.01 126.68ZM146.8 136.55C150.89 126.18 152.31 115.58 151.13 106.9C151.06 106.62 151.02 106.34 151 106.06C150.29 101.56 148.87 97.62 146.75 94.54C144.65 95.1 142.53 95.99 140.43 97.16C140.16 97.37 139.85 97.54 139.53 97.69C132.55 101.9 125.82 109.31 120.75 118.63C121.38 120 121.97 121.4 122.53 122.82C128.35 137.56 129.44 152.63 126.08 164.36C126.99 163.73 127.9 163.04 128.8 162.31C128.94 162.18 129.09 162.05 129.24 161.94C136.29 156.03 142.67 147.03 146.8 136.55ZM204.89 159.53C199.96 152.49 189.49 147.26 177 145.69C176.64 146.01 176.28 146.33 175.91 146.64C167.17 154.08 156.57 158.31 146.41 158.48C144.43 161.17 142.32 163.66 140.11 165.92C147.45 170.89 158.05 173.86 169.13 173.86C184.74 173.86 198.9 168.07 204.89 159.53ZM165.23 205.36C157.21 214.69 133.16 218 115 218C96.84 218 72.79 214.69 64.77 205.36C62.91 203.19 63.13 199.9 65.27 198.01C67.41 196.13 70.65 196.35 72.51 198.52C75.74 202.29 91.06 207.59 115 207.59C138.93 207.59 154.26 202.29 157.49 198.52C159.35 196.35 162.59 196.13 164.73 198.01C166.86 199.9 167.09 203.19 165.23 205.36ZM44.02 81.5C52.93 49.42 82.12 27.02 115 27.02C147.88 27.02 177.07 49.42 185.98 81.5C186.75 84.26 185.16 87.14 182.44 87.91C181.97 88.05 181.5 88.11 181.04 88.11C178.8 88.11 176.74 86.61 176.11 84.32C168.44 56.71 143.31 37.43 115 37.43C86.69 37.43 61.56 56.71 53.89 84.32C53.13 87.08 50.29 88.69 47.56 87.91C44.84 87.14 43.25 84.26 44.02 81.5ZM90.54 193.9C88.68 191.74 88.9 188.45 91.04 186.56C93.17 184.68 96.38 184.9 98.25 187.03C99.42 188.11 105.49 190.11 115 190.11C124.51 190.11 130.58 188.11 131.75 187.04C133.61 184.9 136.83 184.68 138.96 186.56C141.09 188.45 141.32 191.73 139.46 193.9C134.2 200.04 119.41 200.51 115 200.51C110.59 200.51 95.81 200.04 90.54 193.9ZM20.74 60.2C22.16 57.71 25.3 56.86 27.75 58.3L30.45 59.88C32.91 61.32 33.75 64.5 32.33 66.99C31.38 68.66 29.66 69.59 27.88 69.59C27.01 69.59 26.13 69.37 25.32 68.89L22.62 67.31C20.17 65.87 19.33 62.69 20.74 60.2Z" />
	</g>
</svg>