<svg width="17" height="15" viewBox="0 0 17 15" fill="none" xmlns="http://www.w3.org/2000/svg">
<g opacity="0.75" clip-path="url(#clip0_208_3)">
<path d="M0.957072 14.7715C1.20269 14.7715 1.41549 14.6813 1.59498 14.4997C2.2304 13.8593 7.31178 8.73414 7.9467 8.09324C8.12619 7.9122 8.21618 7.69807 8.21618 7.44983C8.21618 7.2021 8.12619 6.98746 7.9467 6.80643C7.31178 6.16603 2.2304 1.04085 1.59498 0.399949C1.41549 0.218912 1.20269 0.128143 0.957072 0.128143C0.711455 0.128143 0.498654 0.218912 0.319165 0.399949C0.139676 0.580985 0.0496826 0.795621 0.0496826 1.04335C0.0496826 2.32465 0.0496826 12.575 0.0496826 13.8563C0.0496826 14.1045 0.139676 14.3187 0.319165 14.4997C0.498654 14.6813 0.711455 14.7715 0.957072 14.7715Z" fill="white"/>
</g>
<g opacity="0.75" clip-path="url(#clip1_208_3)">
<path d="M8.95707 14.7715C9.20269 14.7715 9.41549 14.6813 9.59498 14.4997C10.2304 13.8593 15.3118 8.73414 15.9467 8.09324C16.1262 7.9122 16.2162 7.69807 16.2162 7.44983C16.2162 7.2021 16.1262 6.98746 15.9467 6.80643C15.3118 6.16603 10.2304 1.04085 9.59498 0.399949C9.41549 0.218912 9.20269 0.128143 8.95707 0.128143C8.71146 0.128143 8.49865 0.218912 8.31916 0.399949C8.13968 0.580985 8.04968 0.795621 8.04968 1.04335C8.04968 2.32465 8.04968 12.575 8.04968 13.8563C8.04968 14.1045 8.13968 14.3187 8.31916 14.4997C8.49865 14.6813 8.71146 14.7715 8.95707 14.7715Z" fill="white"/>
</g>
<defs>
<clipPath id="clip0_208_3">
<rect width="8.36539" height="15" fill="white"/>
</clipPath>
<clipPath id="clip1_208_3">
<rect width="8.36539" height="15" fill="white" transform="translate(8 3.05176e-05)"/>
</clipPath>
</defs>
</svg>
