<svg width="13" height="13" viewBox="0 0 13 13" fill="none" xmlns="http://www.w3.org/2000/svg">
<path d="M6.5 0C2.91568 0 0 2.91596 0 6.5C0 10.084 2.91568 13 6.5 13C10.0843 13 13 10.084 13 6.5C13 2.91596 10.0843 0 6.5 0ZM9.08403 6.72773L5.29237 9.16523C5.24794 9.19405 5.19662 9.20834 5.14584 9.20834C5.10141 9.20834 5.05644 9.19722 5.01625 9.17528C4.92896 9.12768 4.875 9.03668 4.875 8.9375V4.0625C4.875 3.96332 4.92896 3.87232 5.01625 3.82472C5.10194 3.77764 5.20932 3.78054 5.29237 3.83477L9.08403 6.27227C9.16127 6.32199 9.20834 6.40796 9.20834 6.5C9.20834 6.59204 9.16127 6.67799 9.08403 6.72773Z" fill="white"/>
</svg>
