<svg width="17" height="15" viewBox="0 0 17 15" fill="none" xmlns="http://www.w3.org/2000/svg">
<g opacity="0.75" clip-path="url(#clip0_208_2)">
<path d="M15.4082 14.7715C15.1625 14.7715 14.9497 14.6812 14.7703 14.4997C14.1348 13.8593 9.05346 8.73412 8.41853 8.09323C8.23904 7.91219 8.14905 7.69805 8.14905 7.44982C8.14905 7.20208 8.23904 6.98745 8.41853 6.80641C9.05346 6.16602 14.1348 1.04083 14.7703 0.399933C14.9497 0.218897 15.1625 0.128128 15.4082 0.128128C15.6538 0.128128 15.8666 0.218897 16.0461 0.399933C16.2256 0.58097 16.3156 0.795605 16.3156 1.04334C16.3156 2.32464 16.3156 12.575 16.3156 13.8563C16.3156 14.1045 16.2256 14.3187 16.0461 14.4997C15.8666 14.6812 15.6538 14.7715 15.4082 14.7715Z" fill="white"/>
</g>
<g opacity="0.75" clip-path="url(#clip1_208_2)">
<path d="M7.40816 14.7715C7.16255 14.7715 6.94974 14.6812 6.77026 14.4997C6.13484 13.8593 1.05346 8.73412 0.418532 8.09323C0.239042 7.91219 0.14905 7.69805 0.14905 7.44982C0.14905 7.20208 0.239042 6.98745 0.418532 6.80641C1.05346 6.16602 6.13484 1.04083 6.77026 0.399933C6.94974 0.218897 7.16255 0.128128 7.40816 0.128128C7.65378 0.128128 7.86658 0.218897 8.04607 0.399933C8.22556 0.58097 8.31555 0.795605 8.31555 1.04334C8.31555 2.32464 8.31555 12.575 8.31555 13.8563C8.31555 14.1045 8.22556 14.3187 8.04607 14.4997C7.86658 14.6812 7.65378 14.7715 7.40816 14.7715Z" fill="white"/>
</g>
<defs>
<clipPath id="clip0_208_2">
<rect width="8.36539" height="15" fill="white" transform="matrix(-1 0 0 1 16.3652 1.52588e-05)"/>
</clipPath>
<clipPath id="clip1_208_2">
<rect width="8.36539" height="15" fill="white" transform="matrix(-1 0 0 1 8.36523 1.52588e-05)"/>
</clipPath>
</defs>
</svg>
