<svg width="22" height="20" viewBox="0 0 22 20" fill="none" xmlns="http://www.w3.org/2000/svg">
<g opacity="0.5">
<path d="M20.9963 6.52769C20.364 5.23077 19.2778 4.50462 18.227 3.80154C17.444 3.27692 16.7055 2.78154 16.1824 2.07231L16.0855 1.94154C15.7778 1.52769 15.427 1.05846 15.3732 0.664615C15.3686 0.632308 15.3501 0.606154 15.3409 0.573846C15.327 0.52 15.3117 0.469231 15.287 0.42C15.2686 0.38 15.2424 0.344615 15.2147 0.307692C15.1824 0.266154 15.1517 0.226154 15.1117 0.192308C15.0732 0.158462 15.0317 0.135385 14.9886 0.109231C14.9486 0.0861539 14.9116 0.0646154 14.867 0.0492308C14.8132 0.0292308 14.7578 0.0215384 14.6993 0.0153846C14.6701 0.0138461 14.6455 0 14.6147 0C14.5963 0 14.5809 0.00923081 14.564 0.0107693C14.5455 0.0123077 14.5286 0.00461538 14.5101 0.0076923C14.4763 0.0123077 14.4501 0.0307693 14.4178 0.04C14.3655 0.0538462 14.3163 0.0676923 14.2701 0.0923077C14.227 0.113846 14.1901 0.141538 14.1532 0.172308C14.1132 0.203077 14.0747 0.233846 14.0424 0.272308C14.0101 0.309231 13.987 0.349231 13.9624 0.390769C13.9378 0.433846 13.9147 0.475385 13.8978 0.523077C13.8809 0.570769 13.8747 0.62 13.8686 0.672308C13.8609 0.703077 13.8455 0.733846 13.8455 0.769231V14.4769C13.2009 14.0862 12.407 13.8462 11.5378 13.8462C9.41627 13.8462 7.69165 15.2262 7.69165 16.9231C7.69165 18.62 9.41627 20 11.5378 20C13.6593 20 15.384 18.62 15.384 16.9231V7.95692C16.5393 8.39846 18.4301 9.52308 18.9501 12.1492C18.8532 12.2923 18.7609 12.4477 18.6532 12.5692C18.3717 12.8877 18.404 13.3738 18.7224 13.6538C18.8686 13.7831 19.0501 13.8462 19.2301 13.8462C19.444 13.8462 19.6547 13.7569 19.807 13.5846C20.0117 13.3523 20.1947 13.0769 20.3701 12.7938C20.3901 12.7692 20.4055 12.7462 20.4224 12.72C21.044 11.68 21.4563 10.3646 21.5347 9.06462C21.5855 8.22923 21.3993 7.35231 20.9963 6.52769ZM11.5378 18.4615C10.287 18.4615 9.23011 17.7569 9.23011 16.9231C9.23011 16.0892 10.287 15.3846 11.5378 15.3846C12.7886 15.3846 13.8455 16.0892 13.8455 16.9231C13.8455 17.7569 12.7886 18.4615 11.5378 18.4615ZM20.0009 8.96769C19.9793 9.32769 19.924 9.68769 19.8455 10.04C18.764 7.86923 16.8024 6.73846 15.384 6.32V3.49385C15.987 4.13692 16.687 4.61846 17.3732 5.07692C18.2947 5.69385 19.1655 6.27692 19.6163 7.20154C19.8993 7.77846 20.0347 8.40769 20.0009 8.96769Z" fill="white"/>
<path d="M10 0H0.769231C0.344615 0 0 0.344615 0 0.769231C0 1.19385 0.344615 1.53846 0.769231 1.53846H10C10.4246 1.53846 10.7692 1.19385 10.7692 0.769231C10.7692 0.344615 10.4246 0 10 0Z" fill="white"/>
<path d="M10 4.6156H0.769231C0.344615 4.6156 0 4.96022 0 5.38483C0 5.80945 0.344615 6.15406 0.769231 6.15406H10C10.4246 6.15406 10.7692 5.80945 10.7692 5.38483C10.7692 4.96022 10.4246 4.6156 10 4.6156Z" fill="white"/>
<path d="M5.38461 9.23083H0.769231C0.344615 9.23083 0 9.57545 0 10.0001C0 10.4247 0.344615 10.7693 0.769231 10.7693H5.38461C5.80923 10.7693 6.15385 10.4247 6.15385 10.0001C6.15385 9.57545 5.80923 9.23083 5.38461 9.23083Z" fill="white"/>
<path d="M5.38461 13.8458H0.769231C0.344615 13.8458 0 14.1904 0 14.6151C0 15.0397 0.344615 15.3843 0.769231 15.3843H5.38461C5.80923 15.3843 6.15385 15.0397 6.15385 14.6151C6.15385 14.1904 5.80923 13.8458 5.38461 13.8458Z" fill="white"/>
</g>
</svg>
